<svg xmlns="http://www.w3.org/2000/svg" viewBox="0 0 171.64 289.42"><title>female</title><g id="Layer_2" data-name="Layer 2"><g id="Layer_1-2" data-name="Layer 1"><path d="M89.1,54.46a114.16,114.16,0,0,1,18.54,2c34.94,7.54,53.66,33.83,49.6,69.67a36.5,36.5,0,0,1-.74,5.44c-1.84,7-1.46,12.23,6.5,16.12,7.06,3.44,9.46,11,8.4,18.93-1.09,8.09-5.62,14.08-13.48,16.43-4.63,1.39-7.21,3.65-7.95,8.26a8,8,0,0,1-.31.94c-3.59,10.33-3.59,10.33,5.05,17.42,4.79,3.94,6.23,8.91,4.25,14.77s-8.05,11-13.49,11.23c-1.92.07-3.95-.14-4.4-2.36-.5-2.44,1.44-3,3.37-3.36a10.78,10.78,0,0,0,7.42-4.63c3-4.27,2.48-8.66-1.8-11.7s-8.14-6.36-10.8-10.92c-4.63-7.92-2.93-14.88,4.8-19.67,8.73-5.4,11.95-14.73,9.05-26.19-2.43-9.6-8.47-14.2-19.1-15.12-11.94-1-23.91-2-35.76-3.7-17.65-2.61-31.58-11.09-39.81-27.59-.56-1.13-.9-2.93-2.45-2.81s-1.47,2-1.81,3.22a97.59,97.59,0,0,1-5.41,15.57c-3.3,7-7.91,12.6-15.24,15.81-9.82,4.3-13.63,13.43-16.52,22.66-1.63,5.24.79,10.49,5.66,13.39,11.55,6.87,9.65,17.67,1.44,25.31a94.12,94.12,0,0,1-7.84,6.17c-8.2,6.19-7.06,15.45,2.43,19.59.46.2.93.37,1.41.53,1.8.57,3.9,1.18,2.95,3.63-.85,2.19-3,1.79-4.79,1.23-6.3-2-10.8-6-12.37-12.58-1.52-6.3.75-11.49,5.74-15.48,3.63-2.9,7.78-5.18,10.71-8.93,2-2.58,3.42-5.19,2.34-8.72-.9-2.92-2.41-4.36-5.54-4.78C8.5,182.79,2,176.76.32,167.21c-1.55-8.85,2.57-17.07,11.51-21.78,3.42-1.81,3.8-4.16,3.26-7.39A92.31,92.31,0,0,1,14,111.65C17.24,84.74,32.7,67.91,57.78,59.26,67.63,55.86,77.89,54.65,89.1,54.46Z" style="fill:#e1cce5"/><path d="M147.7,165.73c-.12,5-1.76,10-7.69,13.46-10.45,6-12.37,16.93-4.62,27.39,3.07,4.14,2.48,6.79-.24,10.42-9.3,12.44-20.21,22.94-34.1,30.21-9,4.7-17.74,4.83-26.71,0C56.77,237.86,43.74,224,33.8,206.91c-1.44-2.48-1-4.57.25-7,5.07-9.85,3.27-17.62-5.37-24.11-5.9-4.44-7.16-8.73-4.46-15.59,2.1-5.35,5.77-9.67,10.92-11.86,10.67-4.53,16.66-12.82,20.67-23.14,1.92-4.95,2.16-5,5.52-.85,11.74,14.45,27.9,19.14,45.48,20.69,9.12.81,18.26,1.43,27.37,2.29C143,148.17,147.66,154.29,147.7,165.73Z" style="fill:#e1cce5"/><path d="M87.28,0c30.56.09,54.2,27.51,48.46,56.08-.69,3.42-1.61,4.55-5.25,2.78-28.22-13.67-56.65-12.78-85.06-.59-6.17,2.65-6.85,2.42-7.64-4.32C34.34,24.71,57.1-.09,87.28,0Z" style="fill:#e1cce5"/><path d="M87.65,282.07c2.31-4.49,3.81-8.72,6.37-12.43,6.27-9,14.75-13.73,25.81-13.44a92.16,92.16,0,0,1,34,7.19c1.59.67,3.94,1,4,3.24,0,1.81-1.93,2.58-3.27,3.5-16.22,11-34.32,16.91-53.68,18.64-26.82,2.41-52.48-1.7-76-15.68-3.05-1.81-8.17-3.21-7.84-6.74s5.65-3.87,9-5.13a85.82,85.82,0,0,1,26.89-5c14.47-.61,24.38,6.19,30.85,18.76C84.85,277.17,85.27,279.74,87.65,282.07Z" style="fill:#e1cce5"/></g></g></svg>