<svg xmlns="http://www.w3.org/2000/svg" viewBox="0 0 202.74 272.21"><title>male</title><g id="Layer_2" data-name="Layer 2"><g id="Layer_1-2" data-name="Layer 1"><path d="M102.32,209.35c-16.85-.63-30.89-7.85-42.55-20-11.46-11.93-18.81-26.21-23.15-42-1.11-4.05-2.87-5.86-7.32-6.47-16.06-2.19-24.06-17.42-16.65-31,2.91-5.35,7.23-8.59,13.58-8.67,2.67,0,5.32-.43,8-.47C49,100.42,59,93.46,64.68,79.77c3.89-9.36,4.19-9.31,10.83-1.89C88.16,92,104.89,96.66,122.9,98.47c15.66,1.58,31.29.62,46.94-.06,11.61-.51,20,6,21.83,16.72s-4,21.4-14.43,24.36c-5,1.41-6.81,4.11-8.13,8.64-5.66,19.5-15.37,36.48-31.77,49.07A57.85,57.85,0,0,1,102.32,209.35Z" style="fill:#92afdd"/><path d="M145.65,90.28c-12.17.79-24.32.49-36.28-2.19-17.74-4-30.73-13.87-38.47-30.47-.61-1.31-.81-3.48-2.4-3.5-2,0-2,2.34-2.59,3.78-2.59,6.68-5.08,13.41-8.55,19.7A26.26,26.26,0,0,1,28.79,90.27c-2.23-.53-2.9-2-3.2-3.91C20.67,55.12,28.82,21.85,66.66,7.17,90.2-2,114.31-2.65,138,6.73c24.6,9.75,37.4,28.48,38.94,54.85A112.33,112.33,0,0,1,175.83,84c-.65,4.49-2.72,6.39-7.21,6.31C161,90.17,153.31,90.28,145.65,90.28Z" style="fill:#92afdd"/><path d="M136.81,241.6c0-8.66.08-17.33,0-26-.05-3.92,1.21-5.45,5.37-4.49q28.48,6.56,57,12.79c4.16.92,4.42,2.63,2.05,5.75a101.48,101.48,0,0,1-16.66,17.18c-12.86,10.57-27.43,18.19-42.69,24.63-3.73,1.57-5.17.74-5.1-3.39.15-8.83.05-17.65.05-26.48Z" style="fill:#92afdd"/><path d="M66,241.42v26.47c0,3.54-1.42,5-5,3.49C38.83,262,18.44,250,2.92,231c-4.33-5.29-4.09-6,2.37-7.46q26.79-6.06,53.6-12c6.57-1.46,7-1.07,7.08,5.92,0,8,0,16,0,24Z" style="fill:#92afdd"/><path d="M130.82,232.09c-.24,5.25.4,9.11-.91,12.84-1.91,5.46-5.64,7.39-10.34,4.1-12-8.41-23.47-8.22-35.42.14-4.54,3.18-8.83,1.17-10.12-4.41a49,49,0,0,1,.08-22.28c1.3-5.54,5.42-7.37,10.18-4.14,11.85,8,23.15,8.25,35.1.15,5.25-3.55,9.59-1.19,10.82,5.1A58,58,0,0,1,130.82,232.09Z" style="fill:#92afdd"/></g></g></svg>